# xmcd
#
# Track frame offsets:
#   150
#   12498
#   22642
#   36867
#   46576
#   62956
#   74751
#   89121
#   100517
#   112968
#   128264
#   141170
#   153986
#   166960
#   179741
#   192165
#   203845
#   216616
#   228492
#   245313
#
# Disc length: 3443 seconds
#
# Revision: 0
# Processed by: cddbd v1.4PL0 Copyright (c) Steve Scherf et al.
# Submitted via: uFREEDB 1.6.0
#
DISCID=160d7114
DTITLE=Merle Haggard - Country Gold
DYEAR=1995
DGENRE=Country
TTITLE0=Okie from muskogee
TTITLE1=Mama tried
TTITLE2=Branded man
TTITLE3=The legend of Bonnie and Clyde
TTITLE4=Hungry eyes
TTITLE5=Workin´ man blues
TTITLE6=I´m a lonesome fugitive
TTITLE7=(My friends are gonna be) Strangers
TTITLE8=The bottle let me down
TTITLE9=Wine and Roses
TTITLE10=Swingin´ doors
TTITLE11=Sing me back home
TTITLE12=Emptiest arms in the world
TTITLE13=Turnin´ off a memory
TTITLE14=Everybody´s had the blues
TTITLE15=Someday we´ll look back
TTITLE16=I take a lot of pride in what i am
TTITLE17=Carolyn
TTITLE18=Daddy Frank
TTITLE19=The fightin´ side of me
EXTD=
EXTT0=
EXTT1=
EXTT2=
EXTT3=
EXTT4=
EXTT5=
EXTT6=
EXTT7=
EXTT8=
EXTT9=
EXTT10=
EXTT11=
EXTT12=
EXTT13=
EXTT14=
EXTT15=
EXTT16=
EXTT17=
EXTT18=
EXTT19=
PLAYORDER=
